<svg xmlns="http://www.w3.org/2000/svg" version="1.1" xmlns:xlink="http://www.w3.org/1999/xlink" xmlns:svgjs="http://svgjs.com/svgjs" width="256" height="256" x="0" y="0" viewBox="0 0 24 24" style="enable-background:new 0 0 512 512" xml:space="preserve"><g><path d="M19.5 2h-15C2.02 2 0 4.02 0 6.5v11C0 19.98 2.02 22 4.5 22h15c2.48 0 4.5-2.02 4.5-4.5v-11C24 4.02 21.98 2 19.5 2ZM7.1 21c.46-2.32 2.48-4 4.9-4s4.44 1.68 4.9 4H7.1ZM23 17.5c0 1.93-1.57 3.5-3.5 3.5h-1.58c-.48-2.88-2.95-5-5.92-5s-5.44 2.12-5.92 5H4.5C2.57 21 1 19.43 1 17.5v-11C1 4.57 2.57 3 4.5 3h15C21.43 3 23 4.57 23 6.5v11ZM12 6c-2.21 0-4 1.79-4 4s1.79 4 4 4 4-1.79 4-4-1.79-4-4-4Zm0 7c-1.65 0-3-1.35-3-3s1.35-3 3-3 3 1.35 3 3-1.35 3-3 3Z" fill="#4da8eb" data-original="#000000"></path></g></svg>